<svg xmlns="http://www.w3.org/2000/svg" viewBox="0 0 192 192" width="192" height="192">
  <defs>
    <linearGradient id="bg" x1="0%" y1="0%" x2="100%" y2="100%">
      <stop offset="0%" style="stop-color:#0f172a"/>
      <stop offset="100%" style="stop-color:#1e3a5f"/>
    </linearGradient>
    <linearGradient id="plane" x1="0%" y1="0%" x2="100%" y2="100%">
      <stop offset="0%" style="stop-color:#38bdf8"/>
      <stop offset="100%" style="stop-color:#0ea5e9"/>
    </linearGradient>
  </defs>
  <rect width="192" height="192" rx="40" fill="url(#bg)"/>
  <!-- Airplane path centered, pointing top-right -->
  <g transform="translate(96,96) rotate(-35)">
    <path d="M0,-52 L12,-28 L48,-28 L48,-18 L12,-18 L16,12 L30,12 L30,22 L16,22 L14,36 L0,44 L-14,36 L-16,22 L-30,22 L-30,12 L-16,12 L-12,-18 L-48,-18 L-48,-28 L-12,-28 Z" fill="url(#plane)"/>
  </g>
  <!-- Subtle trail dots -->
  <circle cx="60" cy="138" r="4" fill="#0ea5e9" opacity="0.5"/>
  <circle cx="72" cy="148" r="3" fill="#0ea5e9" opacity="0.35"/>
  <circle cx="82" cy="156" r="2" fill="#0ea5e9" opacity="0.2"/>
</svg>
