<svg xmlns="http://www.w3.org/2000/svg" viewBox="0 0 512 512" width="512" height="512">
  <defs>
    <linearGradient id="bg" x1="0%" y1="0%" x2="100%" y2="100%">
      <stop offset="0%" style="stop-color:#0f172a"/>
      <stop offset="100%" style="stop-color:#1e3a5f"/>
    </linearGradient>
    <linearGradient id="plane" x1="0%" y1="0%" x2="100%" y2="100%">
      <stop offset="0%" style="stop-color:#38bdf8"/>
      <stop offset="100%" style="stop-color:#0ea5e9"/>
    </linearGradient>
  </defs>
  <rect width="512" height="512" rx="110" fill="url(#bg)"/>
  <g transform="translate(256,256) rotate(-35)">
    <path d="M0,-138 L32,-74 L128,-74 L128,-48 L32,-48 L42,32 L80,32 L80,58 L42,58 L36,96 L0,118 L-36,96 L-42,58 L-80,58 L-80,32 L-42,32 L-32,-48 L-128,-48 L-128,-74 L-32,-74 Z" fill="url(#plane)"/>
  </g>
  <circle cx="160" cy="368" r="11" fill="#0ea5e9" opacity="0.5"/>
  <circle cx="192" cy="395" r="8" fill="#0ea5e9" opacity="0.35"/>
  <circle cx="218" cy="416" r="5" fill="#0ea5e9" opacity="0.2"/>
</svg>
